<svg width="406" height="509" viewBox="0 0 406 509" fill="none" xmlns="http://www.w3.org/2000/svg">
<path d="M98.8422 508.635C153.405 508.635 197.637 503.305 197.637 496.729C197.637 490.153 153.405 484.822 98.8422 484.822C44.2792 484.822 0.0471802 490.153 0.0471802 496.729C0.0471802 503.305 44.2792 508.635 98.8422 508.635Z" fill="#F2F2F2"/>
<path d="M306.942 508.635C361.505 508.635 405.737 503.305 405.737 496.729C405.737 490.153 361.505 484.822 306.942 484.822C252.379 484.822 208.147 490.153 208.147 496.729C208.147 503.305 252.379 508.635 306.942 508.635Z" fill="#F2F2F2"/>
<path d="M221.761 28.4166L208.392 23.1441L195.024 17.8717L206.276 8.93618L217.529 0L219.645 14.2087L221.761 28.4166Z" fill="#F2F2F2"/>
<path d="M211.124 128.845L197.756 123.572L184.388 118.299L195.003 110.978L205.617 103.657L208.371 116.25L211.124 128.845Z" fill="#F2F2F2"/>
<path d="M188.128 263.745L174.76 258.473L161.392 253.2L172.644 244.265L183.896 235.329L186.012 249.537L188.128 263.745Z" fill="#F2F2F2"/>
<path d="M47.955 416.258L35.3295 423.12L22.7041 429.982L23.0713 415.622L23.4391 401.262L35.6967 408.76L47.955 416.258Z" fill="#F2F2F2"/>
<path d="M35.3429 94.0823L22.7175 100.944L10.092 107.806L10.4592 93.4456L10.8271 79.0857L23.0846 86.584L35.3429 94.0823Z" fill="#F2F2F2"/>
</svg>
