<svg width="850" height="605" viewBox="0 0 850 605" fill="none" xmlns="http://www.w3.org/2000/svg">
<path d="M845.318 562.216C845.224 562.464 845.037 562.666 844.796 562.776C844.555 562.886 844.28 562.897 844.032 562.805L49.2709 267.07C49.0229 266.977 48.8219 266.789 48.7119 266.548C48.602 266.307 48.5921 266.033 48.6845 265.784C48.7768 265.536 48.9639 265.335 49.2046 265.224C49.4453 265.114 49.72 265.103 49.9684 265.195L844.729 560.93C844.977 561.023 845.178 561.211 845.289 561.452C845.399 561.693 845.409 561.968 845.318 562.216Z" fill="#F2F2F2"/>
<path d="M421.955 0H232.575C217.719 0.0168095 203.477 5.9257 192.972 16.4303C182.467 26.935 176.559 41.1775 176.542 56.0333V73.151C176.153 73.044 175.745 73.0289 175.349 73.1067C174.954 73.1846 174.582 73.3533 174.262 73.5996C173.943 73.8459 173.686 74.163 173.51 74.5259C173.335 74.8888 173.246 75.2876 173.251 75.6907V88.8543C173.246 89.2574 173.335 89.6561 173.51 90.019C173.686 90.3819 173.943 90.699 174.262 90.9453C174.582 91.1916 174.954 91.3604 175.349 91.4382C175.745 91.5161 176.153 91.5009 176.542 91.3939V111.325C176.153 111.218 175.745 111.203 175.349 111.281C174.954 111.359 174.582 111.528 174.262 111.774C173.943 112.02 173.686 112.337 173.51 112.7C173.335 113.063 173.246 113.462 173.251 113.865V146.774C173.246 147.177 173.335 147.576 173.51 147.939C173.686 148.302 173.943 148.619 174.262 148.865C174.582 149.111 174.954 149.28 175.349 149.358C175.745 149.436 176.153 149.421 176.542 149.314V161.347C176.153 161.24 175.745 161.225 175.349 161.303C174.954 161.381 174.582 161.549 174.262 161.796C173.943 162.042 173.686 162.359 173.51 162.722C173.335 163.085 173.246 163.484 173.251 163.887V196.796C173.246 197.199 173.335 197.598 173.51 197.961C173.686 198.323 173.943 198.641 174.262 198.887C174.582 199.133 174.954 199.302 175.349 199.38C175.745 199.458 176.153 199.442 176.542 199.335V546.859C176.559 561.715 182.467 575.957 192.972 586.462C203.477 596.967 217.719 602.875 232.575 602.892H421.955C436.81 602.875 451.053 596.967 461.558 586.462C472.062 575.957 477.971 561.715 477.988 546.859V56.0333C477.971 41.1775 472.062 26.935 461.558 16.4303C451.053 5.9257 436.81 0.0168095 421.955 0ZM466.141 546.859C466.127 558.574 461.468 569.805 453.184 578.089C444.901 586.372 433.669 591.032 421.955 591.045H232.575C220.86 591.032 209.629 586.372 201.345 578.089C193.062 569.805 188.402 558.574 188.389 546.859V56.0333C188.402 44.3185 193.062 33.0873 201.345 24.8037C209.629 16.5201 220.86 11.8605 232.575 11.8472H421.955C433.669 11.8605 444.901 16.5201 453.184 24.8037C461.468 33.0873 466.127 44.3185 466.141 56.0333V546.859Z" fill="#3F3D56"/>
<path d="M421.955 597.627H232.575C219.115 597.612 206.211 592.258 196.694 582.74C187.176 573.223 181.822 560.319 181.807 546.859V56.0333C181.822 42.5735 187.176 29.6694 196.694 20.1519C206.211 10.6344 219.115 5.28072 232.575 5.26544H421.955C435.414 5.28071 448.318 10.6344 457.836 20.1519C467.353 29.6694 472.707 42.5735 472.722 56.0333V546.859C472.707 560.319 467.353 573.223 457.836 582.74C448.318 592.258 435.414 597.612 421.955 597.627Z" fill="#E6E6E6"/>
<path d="M426.634 589.729H227.895C218.817 589.718 210.114 586.108 203.695 579.688C197.276 573.269 193.665 564.566 193.654 555.488V47.4044C193.665 38.3263 197.276 29.623 203.695 23.2039C210.114 16.7847 218.817 13.1739 227.895 13.1636H253.813C255.313 13.1653 256.752 13.7621 257.813 14.8231C258.874 15.8841 259.471 17.3226 259.472 18.823C259.477 23.2556 261.24 27.5052 264.375 30.6395C267.509 33.7738 271.758 35.5368 276.191 35.5417H375.706C380.138 35.5368 384.388 33.7738 387.522 30.6395C390.657 27.5052 392.42 23.2556 392.425 18.823C392.426 17.3226 393.023 15.8841 394.084 14.8231C395.145 13.7621 396.583 13.1653 398.084 13.1636H426.634C435.712 13.1739 444.416 16.7847 450.835 23.2038C457.254 29.623 460.865 38.3263 460.875 47.4043V555.488C460.865 564.566 457.254 573.269 450.835 579.688C444.416 586.108 435.713 589.718 426.634 589.729Z" fill="white"/>
<path d="M335.821 24.6817H312.127C311.428 24.6817 310.759 24.4044 310.265 23.9106C309.771 23.4169 309.494 22.7473 309.494 22.049C309.494 21.3508 309.771 20.6811 310.265 20.1874C310.759 19.6937 311.428 19.4163 312.127 19.4163H335.821C336.519 19.4163 337.189 19.6937 337.683 20.1874C338.176 20.6811 338.454 21.3508 338.454 22.049C338.454 22.7473 338.176 23.4169 337.683 23.9106C337.189 24.4044 336.519 24.6817 335.821 24.6817Z" fill="white"/>
<path d="M352.276 24.0236C353.003 24.0236 353.592 23.4342 353.592 22.7072C353.592 21.9802 353.003 21.3908 352.276 21.3908C351.549 21.3908 350.959 21.9802 350.959 22.7072C350.959 23.4342 351.549 24.0236 352.276 24.0236Z" fill="white"/>
<path d="M467.278 116H186.99V119H467.278V116Z" fill="#E6E6E6"/>
<path d="M467.278 176H186.99V179H467.278V176Z" fill="#E6E6E6"/>
<path d="M467.278 300H186.99V303H467.278V300Z" fill="#E6E6E6"/>
<path d="M467.278 424H186.99V427H467.278V424Z" fill="#E6E6E6"/>
<path d="M467.278 521H186.99V524H467.278V521Z" fill="#E6E6E6"/>
<path d="M390.542 117.5H387.542V301.5H390.542V117.5Z" fill="#E6E6E6"/>
<path d="M250.227 301.446H247.227V522.5H250.227V301.446Z" fill="#E6E6E6"/>
<path d="M460.875 362.083H248.727V365.083H460.875V362.083Z" fill="#E6E6E6"/>
<path d="M390.864 522.5H387.864V589.729H390.864V522.5Z" fill="#E6E6E6"/>
<path d="M388.542 239.229H193.154V242.229H388.542V239.229Z" fill="#E6E6E6"/>
<path d="M233.959 11.2681L231.191 12.4263L275.406 118.079L278.173 116.921L233.959 11.2681Z" fill="#E6E6E6"/>
<path d="M370.132 35.5415H367.132V117.5H370.132V35.5415Z" fill="#E6E6E6"/>
<path d="M388.591 302.362L278.765 521.795L281.447 523.138L391.273 303.705L388.591 302.362Z" fill="#E6E6E6"/>
<path d="M850 604C849.999 604.265 849.894 604.519 849.706 604.706C849.519 604.894 849.265 604.999 849 605H1C0.734784 605 0.480429 604.895 0.292892 604.707C0.105356 604.52 0 604.265 0 604C0 603.735 0.105356 603.48 0.292892 603.293C0.480429 603.105 0.734784 603 1 603H849C849.265 603.001 849.519 603.106 849.706 603.294C849.894 603.481 849.999 603.735 850 604Z" fill="#CCCCCC"/>
<path d="M573.51 158.861C568.08 166.097 544.242 174.563 537.391 176.883C537.184 176.954 536.963 176.972 536.748 176.938C536.532 176.903 536.328 176.817 536.153 176.686C535.978 176.555 535.838 176.383 535.745 176.185C535.651 175.988 535.608 175.77 535.617 175.552C535.929 168.326 537.393 143.071 542.822 135.835C545.876 131.766 550.421 129.076 555.457 128.358C560.494 127.639 565.61 128.951 569.679 132.005C573.748 135.058 576.438 139.603 577.157 144.639C577.875 149.676 576.563 154.792 573.51 158.861Z" fill="#F2F2F2"/>
<path d="M558.974 156.031C564.364 156.031 568.734 151.662 568.734 146.271C568.734 140.881 564.364 136.512 558.974 136.512C553.584 136.512 549.214 140.881 549.214 146.271C549.214 151.662 553.584 156.031 558.974 156.031Z" fill="white"/>
<path d="M530.293 188.871C532.709 188.871 534.668 186.912 534.668 184.496C534.668 182.08 532.709 180.121 530.293 180.121C527.876 180.121 525.918 182.08 525.918 184.496C525.918 186.912 527.876 188.871 530.293 188.871Z" fill="#F2F2F2"/>
<path d="M97.677 357.34C105.666 369.547 105.411 410.341 105.166 422.002C105.159 422.354 105.066 422.699 104.895 423.007C104.724 423.316 104.481 423.578 104.186 423.771C103.891 423.964 103.554 424.082 103.203 424.115C102.852 424.148 102.499 424.095 102.173 423.961C91.3881 419.519 53.9003 403.429 45.911 391.223C43.6832 387.824 42.1469 384.019 41.39 380.026C40.6331 376.033 40.6704 371.931 41.4998 367.952C42.3292 363.973 43.9344 360.197 46.2237 356.84C48.513 353.482 51.4415 350.608 54.8419 348.382C58.2423 346.156 62.0479 344.623 66.0413 343.868C70.0348 343.114 74.1377 343.154 78.1156 343.986C82.0936 344.818 85.8687 346.425 89.2251 348.717C92.5815 351.008 95.4535 353.939 97.677 357.34Z" fill="#F2F2F2"/>
<path d="M70.6051 388.204C79.2973 388.204 86.3437 381.157 86.3437 372.465C86.3437 363.773 79.2973 356.727 70.6051 356.727C61.913 356.727 54.8666 363.773 54.8666 372.465C54.8666 381.157 61.913 388.204 70.6051 388.204Z" fill="white"/>
<path d="M112.81 444.001C116.706 444.001 119.865 440.842 119.865 436.946C119.865 433.049 116.706 429.891 112.81 429.891C108.913 429.891 105.754 433.049 105.754 436.946C105.754 440.842 108.913 444.001 112.81 444.001Z" fill="#F2F2F2"/>
</svg>
