<svg width="910" height="127" viewBox="0 0 910 127" fill="none" xmlns="http://www.w3.org/2000/svg">
<path d="M909.497 125H0.497002V127H909.497V125Z" fill="#3A1E11"/>
<path d="M175.997 63.3381C175.991 58.9062 174.649 54.5791 172.146 50.9219C169.643 47.2647 166.095 44.4474 161.966 42.8381C166.749 40.9793 170.732 37.5071 173.225 33.0222C175.719 28.5373 176.566 23.3218 175.62 18.2782C174.675 13.2346 171.996 8.6802 168.047 5.40302C164.098 2.12583 159.128 0.332031 153.997 0.332031C148.866 0.332031 143.895 2.12583 139.947 5.40302C135.998 8.6802 133.319 13.2346 132.374 18.2782C131.428 23.3218 132.275 28.5373 134.769 33.0222C137.262 37.5071 141.245 40.9793 146.028 42.8381C141.896 44.4427 138.345 47.2588 135.841 50.9171C133.337 54.5754 131.997 58.905 131.997 63.3381C131.997 67.7712 133.337 72.1008 135.841 75.759C138.345 79.4173 141.896 82.2334 146.028 83.8381C141.245 85.6968 137.262 89.1691 134.769 93.654C132.275 98.1389 131.428 103.354 132.374 108.398C133.319 113.442 135.998 117.996 139.947 121.273C143.895 124.55 148.866 126.344 153.997 126.344C159.128 126.344 164.098 124.55 168.047 121.273C171.996 117.996 174.675 113.442 175.62 108.398C176.566 103.354 175.719 98.1389 173.225 93.654C170.732 89.1691 166.749 85.6968 161.966 83.8381C166.095 82.2287 169.643 79.4115 172.146 75.7543C174.649 72.0971 175.991 67.7699 175.997 63.3381ZM133.997 22.3381C133.994 18.5754 135.052 14.8881 137.05 11.6999C139.049 8.51165 141.906 5.95176 145.293 4.31433C148.681 2.6769 152.462 2.02835 156.202 2.44318C159.942 2.858 163.489 4.31938 166.435 6.65942C169.382 8.99947 171.608 12.1232 172.859 15.6719C174.11 19.2205 174.335 23.0501 173.507 26.7206C172.679 30.3912 170.833 33.7538 168.18 36.4221C165.527 39.0905 162.176 40.9564 158.51 41.8054C155.534 41.1823 152.46 41.1823 149.484 41.8054C145.085 40.7827 141.162 38.303 138.35 34.7689C135.539 31.2348 134.005 26.8541 133.997 22.3381ZM173.997 104.338C174 108.101 172.942 111.788 170.944 114.976C168.945 118.165 166.088 120.724 162.7 122.362C159.313 123.999 155.532 124.648 151.792 124.233C148.052 123.818 144.505 122.357 141.559 120.017C138.612 117.677 136.386 114.553 135.135 111.004C133.884 107.456 133.659 103.626 134.487 99.9556C135.315 96.285 137.161 92.9224 139.814 90.254C142.467 87.5857 145.818 85.7198 149.484 84.8707C152.46 85.4938 155.534 85.4938 158.51 84.8707C162.909 85.8934 166.832 88.3732 169.644 91.9072C172.455 95.4413 173.989 99.8221 173.997 104.338ZM158.51 82.8054C155.534 82.1823 152.46 82.1823 149.484 82.8054C145.082 81.7897 141.154 79.3118 138.341 75.7762C135.528 72.2406 133.997 67.856 133.997 63.3381C133.997 58.8201 135.528 54.4356 138.341 50.9C141.154 47.3644 145.082 44.8865 149.484 43.8707C152.46 44.4938 155.534 44.4938 158.51 43.8707C162.912 44.8865 166.84 47.3644 169.653 50.9C172.466 54.4356 173.997 58.8201 173.997 63.3381C173.997 67.856 172.466 72.2406 169.653 75.7762C166.84 79.3118 162.912 81.7897 158.51 82.8054Z" fill="#3A1E11"/>
</svg>
