<svg width="164" height="490" viewBox="0 0 164 490" fill="none" xmlns="http://www.w3.org/2000/svg">
<path d="M85.8325 62.4873H32.2664V153.931H85.8325V62.4873Z" fill="#2F2E41"/>
<path d="M96.5368 58.6464C90.7492 75.7748 81.8747 91.3814 63.7881 91.3814C45.7015 91.3814 32.0585 76.6967 31.0394 58.6464C29.7373 35.5816 45.2843 25.8158 63.7881 25.9113C85.6473 26.0242 103.405 38.319 96.5368 58.6464Z" fill="#2F2E41"/>
<path d="M41.9315 187.18L23.0172 258.304C23.0172 258.304 -2.20184 264.606 0.500202 270.909C3.20224 277.211 30.2227 266.407 30.2227 266.407L54.541 206.987L41.9315 187.18Z" fill="#FFB9B9"/>
<path d="M57.2432 421.26C57.2432 421.26 74.3561 438.366 63.5479 450.07H86.065L71.6541 414.057L57.2432 421.26Z" fill="#FFB9B9"/>
<path d="M74.8876 449.496C74.8876 449.496 74.8876 442.102 67.6732 446.539C60.4588 450.975 37.2125 462.805 37.2125 462.805C37.2125 462.805 21.1805 471.677 44.4269 473.156C67.6732 474.634 90.118 469.459 90.118 466.501C90.118 463.544 87.7132 449.383 87.7132 449.383C87.7132 449.383 82.9036 454.672 74.8876 449.496Z" fill="#2F2E41"/>
<path d="M77.9587 435.665L77.0583 465.375L94.1708 468.075V439.266L77.9587 435.665Z" fill="#FFB9B9"/>
<path d="M61.7466 98.0495C75.1773 98.0495 86.065 87.1663 86.065 73.7412C86.065 60.3161 75.1773 49.4329 61.7466 49.4329C48.3159 49.4329 37.4282 60.3161 37.4282 73.7412C37.4282 87.1663 48.3159 98.0495 61.7466 98.0495Z" fill="#FFB9B9"/>
<path d="M53.1902 93.0977C53.1902 93.0977 64.899 120.107 55.8922 129.11C46.8854 138.113 69.4024 129.11 69.4024 129.11C69.4024 129.11 81.1113 112.004 90.1181 111.104C90.1181 111.104 76.6079 103.901 77.5086 84.9949L53.1902 93.0977Z" fill="#FFB9B9"/>
<path d="M37.4281 224.093L35.6268 266.407C35.6268 266.407 3.20223 351.036 15.8118 370.843C28.4213 390.649 58.1438 426.662 58.1438 426.662C58.1438 426.662 75.2567 418.559 75.2567 414.057C75.2567 414.057 58.1438 371.743 43.7329 361.84C43.7329 361.84 44.6336 344.734 58.1438 326.728L70.7533 370.843L76.1574 438.366C76.1574 438.366 91.469 443.768 96.8731 441.067C96.8731 441.067 108.582 397.852 100.476 372.643L98.6745 303.32C98.6745 303.32 122.092 269.108 92.3697 228.594L87.8663 214.189C87.8663 214.189 41.9315 218.691 37.4281 224.093Z" fill="#2F2E41"/>
<path d="M79.7602 460.873C79.7602 460.873 79.7602 451.87 71.6541 457.272C63.548 462.674 37.4282 477.079 37.4282 477.079C37.4282 477.079 19.4146 487.882 45.5344 489.683C71.6541 491.484 96.8732 485.181 96.8732 481.58C96.8732 477.979 94.1711 460.735 94.1711 460.735C94.1711 460.735 88.767 467.175 79.7602 460.873Z" fill="#2F2E41"/>
<path d="M60.3954 126.409L88.6995 110.187C88.6995 110.187 130.649 111.104 127.947 132.711C127.947 132.711 119.84 160.621 117.138 157.92L111.734 152.518C111.734 152.518 91.9193 193.032 91.9193 201.135C91.838 206.347 90.9259 211.514 89.2173 216.44L40.5805 223.642C40.5805 223.642 45.9846 193.032 37.8785 187.63C29.7724 182.228 27.0703 167.823 35.1764 155.219C38.2582 150.379 40.9365 145.293 43.1842 140.014C44.5996 136.74 46.6502 133.778 49.2176 131.3C51.785 128.823 54.8181 126.878 58.1418 125.579L60.3954 126.409Z" fill="#90796E"/>
<path d="M123.443 130.01C123.443 130.01 171.179 168.723 163.073 176.826C154.967 184.929 110.834 217.34 110.834 217.34C110.834 217.34 106.33 244.349 97.3235 243.449C88.3167 242.549 99.1249 210.138 99.1249 210.138L136.954 174.125L116.238 152.518L123.443 130.01Z" fill="#FFB9B9"/>
<path d="M63.7882 32.8029C70.9276 32.8029 76.7153 27.0177 76.7153 19.8812C76.7153 12.7447 70.9276 6.95947 63.7882 6.95947C56.6487 6.95947 50.8611 12.7447 50.8611 19.8812C50.8611 27.0177 56.6487 32.8029 63.7882 32.8029Z" fill="#2F2E41"/>
<path d="M48.2757 12.9896C48.2759 9.78638 49.4663 6.69741 51.616 4.32188C53.7657 1.94634 56.7215 0.453568 59.91 0.133126C59.4847 0.0908998 59.0537 0.0678711 58.6173 0.0678711C55.1888 0.0678711 51.9007 1.42927 49.4764 3.85256C47.0521 6.27586 45.6902 9.56255 45.6902 12.9896C45.6902 16.4167 47.0521 19.7033 49.4764 22.1266C51.9007 24.5499 55.1888 25.9113 58.6173 25.9113C59.0537 25.9113 59.4847 25.8883 59.91 25.8461C56.7215 25.5256 53.7657 24.0329 51.616 21.6573C49.4663 19.2818 48.2759 16.1928 48.2757 12.9896Z" fill="#2F2E41"/>
<path d="M48.8753 47.8018C48.8753 47.8018 48.6053 46.2998 38.0484 50.257C27.4915 54.2142 21.1634 83.4166 26.4418 100.564C28.569 107.475 26.8386 112.457 24.0143 115.944C13.4157 129.026 17.5879 148.675 33.0255 155.402C33.4613 155.592 33.906 155.78 34.3595 155.965L40.9576 159.922C40.9576 159.922 32.5465 148.86 36.7557 134.708C40.4111 122.651 40.8625 109.85 38.0655 97.5654C37.5826 95.4931 37.0341 93.3569 36.411 91.1769C31.1325 72.71 33.6997 74.8426 52.1743 56.3757C52.1743 56.3757 62.7312 64.2901 71.9685 68.2473C81.2058 72.2045 89.1235 76.1617 82.5254 89.3524C75.9274 102.543 60.092 114.415 70.6489 131.562C81.2058 148.71 82.5254 142.115 81.2058 148.71L79.8862 155.306L87.8039 147.391L82.5254 157.944C82.5254 157.944 99.6804 157.944 104.959 144.753L107.598 147.391C107.598 147.391 118.155 128.924 98.3609 111.776C98.3609 111.776 91.7628 107.819 101 94.6286C110.237 81.438 103.143 53.078 91.2665 47.8018C79.39 42.5255 48.8753 47.8018 48.8753 47.8018Z" fill="#2F2E41"/>
<path d="M117.076 122.635L113.573 149.249L117.076 157.654C117.076 157.654 132.491 138.744 127.586 128.238C122.681 117.732 117.076 122.635 117.076 122.635Z" fill="#90796E"/>
</svg>
