<svg width="850" height="605" viewBox="0 0 850 605" fill="none" xmlns="http://www.w3.org/2000/svg">
<path d="M845.318 562.216C845.224 562.464 845.037 562.666 844.796 562.776C844.555 562.886 844.28 562.897 844.032 562.805L49.2709 267.07C49.0229 266.977 48.8219 266.789 48.7119 266.548C48.602 266.307 48.5921 266.033 48.6845 265.784C48.7768 265.536 48.9639 265.335 49.2046 265.224C49.4453 265.114 49.72 265.103 49.9684 265.195L844.729 560.93C844.977 561.023 845.178 561.211 845.289 561.452C845.399 561.693 845.409 561.968 845.318 562.216Z" fill="#F2F2F2"/>
<path d="M421.955 0H232.575C217.719 0.0168095 203.477 5.9257 192.972 16.4303C182.467 26.935 176.559 41.1775 176.542 56.0333V73.151C176.153 73.044 175.745 73.0289 175.349 73.1067C174.954 73.1846 174.582 73.3533 174.262 73.5996C173.943 73.8459 173.686 74.163 173.51 74.5259C173.335 74.8888 173.246 75.2876 173.251 75.6907V88.8543C173.246 89.2574 173.335 89.6561 173.51 90.019C173.686 90.3819 173.943 90.699 174.262 90.9453C174.582 91.1916 174.954 91.3604 175.349 91.4382C175.745 91.5161 176.153 91.5009 176.542 91.3939V111.325C176.153 111.218 175.745 111.203 175.349 111.281C174.954 111.359 174.582 111.528 174.262 111.774C173.943 112.02 173.686 112.337 173.51 112.7C173.335 113.063 173.246 113.462 173.251 113.865V146.774C173.246 147.177 173.335 147.576 173.51 147.939C173.686 148.302 173.943 148.619 174.262 148.865C174.582 149.111 174.954 149.28 175.349 149.358C175.745 149.436 176.153 149.421 176.542 149.314V161.347C176.153 161.24 175.745 161.225 175.349 161.303C174.954 161.381 174.582 161.549 174.262 161.796C173.943 162.042 173.686 162.359 173.51 162.722C173.335 163.085 173.246 163.484 173.251 163.887V196.796C173.246 197.199 173.335 197.598 173.51 197.961C173.686 198.323 173.943 198.641 174.262 198.887C174.582 199.133 174.954 199.302 175.349 199.38C175.745 199.458 176.153 199.442 176.542 199.335V546.859C176.559 561.715 182.467 575.957 192.972 586.462C203.477 596.967 217.719 602.875 232.575 602.892H421.955C436.81 602.875 451.053 596.967 461.558 586.462C472.062 575.957 477.971 561.715 477.988 546.859V56.0333C477.971 41.1775 472.062 26.935 461.558 16.4303C451.053 5.9257 436.81 0.0168095 421.955 0ZM466.141 546.859C466.127 558.574 461.468 569.805 453.184 578.089C444.901 586.372 433.669 591.032 421.955 591.045H232.575C220.86 591.032 209.629 586.372 201.345 578.089C193.062 569.805 188.402 558.574 188.389 546.859V56.0333C188.402 44.3185 193.062 33.0873 201.345 24.8037C209.629 16.5201 220.86 11.8605 232.575 11.8472H421.955C433.669 11.8605 444.901 16.5201 453.184 24.8037C461.468 33.0873 466.127 44.3185 466.141 56.0333V546.859Z" fill="#3F3D56"/>
<path d="M421.955 597.627H232.575C219.115 597.612 206.211 592.258 196.694 582.74C187.176 573.223 181.822 560.319 181.807 546.859V56.0333C181.822 42.5735 187.176 29.6694 196.694 20.1519C206.211 10.6344 219.115 5.2807 232.575 5.26543H421.955C435.414 5.2807 448.318 10.6343 457.836 20.1519C467.353 29.6694 472.707 42.5735 472.722 56.0333V546.859C472.707 560.319 467.353 573.223 457.836 582.74C448.318 592.258 435.414 597.612 421.955 597.627Z" fill="#E6E6E6"/>
<path d="M426.634 589.729H227.895C218.817 589.718 210.114 586.108 203.695 579.688C197.276 573.269 193.665 564.566 193.654 555.488V47.4043C193.665 38.3263 197.276 29.623 203.695 23.2038C210.114 16.7847 218.817 13.1739 227.895 13.1636H253.813C255.313 13.1653 256.752 13.7621 257.813 14.8231C258.874 15.8841 259.471 17.3226 259.472 18.823C259.477 23.2556 261.24 27.5052 264.375 30.6395C267.509 33.7737 271.758 35.5367 276.191 35.5417H375.706C380.138 35.5368 384.388 33.7737 387.522 30.6395C390.657 27.5052 392.42 23.2556 392.425 18.823C392.426 17.3226 393.023 15.8841 394.084 14.8231C395.145 13.7621 396.583 13.1653 398.084 13.1636H426.634C435.712 13.1738 444.416 16.7846 450.835 23.2038C457.254 29.6229 460.865 38.3262 460.875 47.4043V555.488C460.865 564.566 457.254 573.269 450.835 579.688C444.416 586.108 435.713 589.718 426.634 589.729Z" fill="white"/>
<path d="M335.821 24.6817H312.127C311.428 24.6817 310.759 24.4044 310.265 23.9106C309.771 23.4169 309.494 22.7473 309.494 22.049C309.494 21.3508 309.771 20.6811 310.265 20.1874C310.759 19.6937 311.428 19.4163 312.127 19.4163H335.821C336.519 19.4163 337.189 19.6937 337.683 20.1874C338.176 20.6811 338.454 21.3508 338.454 22.049C338.454 22.7473 338.176 23.4169 337.683 23.9106C337.189 24.4044 336.519 24.6817 335.821 24.6817Z" fill="white"/>
<path d="M352.276 24.0235C353.003 24.0235 353.592 23.4342 353.592 22.7072C353.592 21.9802 353.003 21.3908 352.276 21.3908C351.549 21.3908 350.959 21.9802 350.959 22.7072C350.959 23.4342 351.549 24.0235 352.276 24.0235Z" fill="white"/>
<path d="M467.278 116H186.99V119H467.278V116Z" fill="#E6E6E6"/>
<path d="M467.278 176H186.99V179H467.278V176Z" fill="#E6E6E6"/>
<path d="M467.278 300H186.99V303H467.278V300Z" fill="#E6E6E6"/>
<path d="M467.278 424H186.99V427H467.278V424Z" fill="#E6E6E6"/>
<path d="M467.278 521H186.99V524H467.278V521Z" fill="#E6E6E6"/>
<path d="M390.542 117.5H387.542V301.5H390.542V117.5Z" fill="#E6E6E6"/>
<path d="M250.227 301.446H247.227V522.5H250.227V301.446Z" fill="#E6E6E6"/>
<path d="M460.875 362.083H248.727V365.083H460.875V362.083Z" fill="#E6E6E6"/>
<path d="M390.864 522.5H387.864V589.729H390.864V522.5Z" fill="#E6E6E6"/>
<path d="M388.542 239.229H193.154V242.229H388.542V239.229Z" fill="#E6E6E6"/>
<path d="M233.959 11.2681L231.191 12.4263L275.406 118.079L278.173 116.921L233.959 11.2681Z" fill="#E6E6E6"/>
<path d="M370.132 35.5415H367.132V117.5H370.132V35.5415Z" fill="#E6E6E6"/>
<path d="M447.49 163C447.49 189.88 405.931 252.516 393.786 270.247C393.419 270.783 392.928 271.221 392.353 271.524C391.779 271.827 391.14 271.986 390.49 271.986C389.841 271.986 389.201 271.827 388.627 271.524C388.053 271.221 387.561 270.783 387.195 270.247C375.05 252.516 333.49 189.88 333.49 163C333.49 147.883 339.496 133.384 350.185 122.695C360.875 112.005 375.373 106 390.49 106C405.608 106 420.106 112.005 430.795 122.695C441.485 133.384 447.49 147.883 447.49 163Z" fill="#90796E"/>
<path d="M390.49 188C406.506 188 419.49 175.016 419.49 159C419.49 142.984 406.506 130 390.49 130C374.474 130 361.49 142.984 361.49 159C361.49 175.016 374.474 188 390.49 188Z" fill="white"/>
<path d="M388.591 302.362L278.765 521.795L281.447 523.138L391.273 303.705L388.591 302.362Z" fill="#E6E6E6"/>
<path d="M546.759 350.63C548.054 351.326 549.485 351.73 550.953 351.813C552.421 351.896 553.889 351.656 555.254 351.11C556.619 350.564 557.848 349.726 558.854 348.653C559.859 347.581 560.618 346.302 561.076 344.905L596.805 344.287L586.316 328.964L553.995 331.9C551.597 331.286 549.057 331.573 546.857 332.707C544.657 333.841 542.949 335.742 542.057 338.051C541.165 340.36 541.151 342.915 542.018 345.234C542.884 347.552 544.571 349.472 546.759 350.63H546.759Z" fill="#FFB8B8"/>
<path d="M568.208 350.184C567.654 350.184 567.106 350.072 566.597 349.854C566.088 349.637 565.628 349.319 565.245 348.918C564.862 348.518 564.564 348.045 564.369 347.527C564.174 347.008 564.086 346.456 564.11 345.903L564.832 329.519C564.871 328.543 565.259 327.614 565.925 326.9C566.591 326.186 567.49 325.734 568.461 325.626L609.852 320.879L608.465 348.181L568.41 350.178C568.343 350.182 568.275 350.184 568.208 350.184Z" fill="#90796E"/>
<path d="M618.618 574.755L606.964 578.561L586.737 535.421L603.937 529.804L618.618 574.755Z" fill="#FFB8B8"/>
<path d="M625.28 585.081L587.703 597.354L587.548 596.878C586.92 594.958 586.677 592.932 586.833 590.917C586.988 588.903 587.539 586.939 588.453 585.137C589.368 583.335 590.628 581.731 592.163 580.417C593.697 579.102 595.475 578.102 597.396 577.475L597.397 577.475L620.348 569.979L625.28 585.081Z" fill="#2F2E41"/>
<path d="M652.944 592.796L640.684 592.795L634.852 545.507L652.946 545.508L652.944 592.796Z" fill="#FFB8B8"/>
<path d="M656.071 604.68L616.54 604.679V604.179C616.54 602.158 616.938 600.157 617.711 598.29C618.484 596.424 619.618 594.728 621.047 593.299C622.475 591.87 624.172 590.737 626.038 589.963C627.905 589.19 629.906 588.792 631.927 588.792H631.928L656.071 588.793L656.071 604.68Z" fill="#2F2E41"/>
<path d="M634.323 581.287C633.321 581.285 632.354 580.917 631.604 580.252C630.855 579.586 630.375 578.669 630.255 577.674L614.448 445.529L591.311 482.671L618.459 552.048C618.828 553.007 618.826 554.07 618.453 555.027C618.08 555.985 617.364 556.769 616.443 557.226L593.413 568.496C592.888 568.753 592.313 568.894 591.728 568.911C591.143 568.928 590.561 568.819 590.022 568.592C589.483 568.365 588.998 568.026 588.601 567.596C588.204 567.166 587.903 566.657 587.719 566.101L562.197 488.993C560.274 483.19 560.023 476.963 561.472 471.024L577.975 403.302L578.168 403.197L615.367 382.821L615.58 382.899L659.388 398.888L654.803 485.706L658.134 575.814C658.18 576.885 657.802 577.93 657.083 578.724C656.363 579.518 655.36 579.998 654.29 580.058L634.58 581.279C634.494 581.284 634.408 581.287 634.323 581.287Z" fill="#2F2E41"/>
<path d="M610.192 429.036C603.647 429.036 598.133 427.171 594.683 422.432L594.571 422.28L596.804 398.854L576.949 409.876C576.537 410.104 576.065 410.201 575.597 410.152C575.128 410.104 574.686 409.913 574.33 409.606C573.973 409.298 573.72 408.888 573.604 408.432C573.487 407.976 573.514 407.495 573.68 407.054L598.442 341.295L614.791 287.728C615.602 283.441 617.696 279.501 620.796 276.43C623.895 273.359 627.855 271.302 632.15 270.532C646.715 267.856 655.389 272.771 665.406 283.677C667.829 286.33 669.613 289.502 670.623 292.95C671.632 296.399 671.841 300.032 671.232 303.573L661.756 357.734L664.54 406.294C664.753 407.131 664.696 408.015 664.377 408.817C664.058 409.62 663.493 410.301 662.763 410.763C655.018 415.693 631.27 429.034 610.192 429.036Z" fill="#6D473C"/>
<path d="M643.328 262.421C656.893 262.421 667.889 251.425 667.889 237.86C667.889 224.295 656.893 213.299 643.328 213.299C629.763 213.299 618.767 224.295 618.767 237.86C618.767 251.425 629.763 262.421 643.328 262.421Z" fill="#FFB8B8"/>
<path d="M649.725 412.938C651.062 412.325 652.248 411.427 653.199 410.306C654.151 409.186 654.845 407.87 655.233 406.452C655.622 405.034 655.694 403.549 655.446 402.1C655.198 400.651 654.635 399.274 653.797 398.066L674.862 369.199L656.313 368.319L639.154 395.866C637.218 397.408 635.915 399.607 635.491 402.046C635.068 404.484 635.554 406.993 636.857 409.098C638.16 411.202 640.19 412.755 642.562 413.463C644.933 414.17 647.482 413.984 649.725 412.938Z" fill="#FFB8B8"/>
<path d="M661.133 396.648C660.106 396.794 659.06 396.546 658.208 395.952L644.263 386.228C643.425 385.648 642.834 384.775 642.607 383.781C642.379 382.787 642.532 381.744 643.035 380.857L667.861 336.686L642.891 306.63C641.58 305.052 640.612 303.218 640.048 301.245C639.485 299.272 639.338 297.203 639.617 295.17C639.897 293.137 640.596 291.185 641.671 289.437C642.747 287.69 644.174 286.185 645.862 285.019C647.551 283.853 649.464 283.051 651.479 282.665C653.494 282.279 655.568 282.316 657.568 282.775C659.568 283.233 661.45 284.103 663.096 285.33C664.741 286.556 666.113 288.111 667.125 289.896L694.695 338.557C694.89 338.904 694.993 339.295 694.992 339.692C694.992 340.09 694.889 340.481 694.694 340.827L664.118 394.615C663.836 395.111 663.453 395.542 662.995 395.882C662.537 396.221 662.014 396.462 661.457 396.588C661.35 396.613 661.242 396.633 661.133 396.648Z" fill="#90796E"/>
<path d="M633.512 234.724C631.081 232.91 627.716 233.193 624.836 232.242C623.121 231.676 621.585 230.669 620.382 229.321C619.179 227.974 618.352 226.335 617.983 224.567C617.613 222.799 617.715 220.965 618.279 219.249C618.842 217.533 619.846 215.996 621.191 214.79C624.302 212.003 628.728 211.37 632.874 210.86C638.553 210.161 644.288 209.462 649.983 210.017C655.679 210.573 661.412 212.497 665.575 216.423C670.165 220.752 672.425 227.196 672.44 233.506C672.28 239.844 670.54 246.043 667.378 251.539C666.4 253.628 664.927 255.445 663.086 256.833C661.17 258.098 658.47 258.429 656.625 257.063C655.03 255.883 654.447 253.815 653.726 251.966C653.006 250.118 651.776 248.149 649.813 247.864C647.285 247.496 645.355 250.067 642.943 250.909C639.568 252.085 635.82 249.483 634.444 246.185C633.067 242.887 633.43 239.156 633.816 235.603" fill="#2F2E41"/>
<path d="M850 604C849.999 604.265 849.894 604.519 849.706 604.706C849.519 604.894 849.265 604.999 849 605H1C0.734784 605 0.480429 604.895 0.292892 604.707C0.105356 604.52 0 604.265 0 604C0 603.735 0.105356 603.48 0.292892 603.293C0.480429 603.105 0.734784 603 1 603H849C849.265 603.001 849.519 603.106 849.706 603.294C849.894 603.481 849.999 603.735 850 604Z" fill="#CCCCCC"/>
<path d="M390.49 314C397.67 314 403.49 308.18 403.49 301C403.49 293.82 397.67 288 390.49 288C383.311 288 377.49 293.82 377.49 301C377.49 308.18 383.311 314 390.49 314Z" fill="#90796E"/>
<path d="M573.51 158.861C568.08 166.097 544.242 174.563 537.391 176.883C537.184 176.954 536.963 176.972 536.748 176.938C536.532 176.903 536.328 176.817 536.153 176.686C535.978 176.555 535.838 176.383 535.745 176.185C535.651 175.988 535.608 175.77 535.617 175.552C535.929 168.326 537.393 143.071 542.822 135.835C545.876 131.766 550.421 129.076 555.457 128.358C560.494 127.639 565.61 128.951 569.679 132.005C573.748 135.058 576.438 139.603 577.157 144.639C577.875 149.676 576.563 154.792 573.51 158.861Z" fill="#F2F2F2"/>
<path d="M558.974 156.031C564.364 156.031 568.734 151.662 568.734 146.271C568.734 140.881 564.364 136.512 558.974 136.512C553.584 136.512 549.214 140.881 549.214 146.271C549.214 151.662 553.584 156.031 558.974 156.031Z" fill="white"/>
<path d="M530.293 188.871C532.709 188.871 534.668 186.912 534.668 184.496C534.668 182.08 532.709 180.121 530.293 180.121C527.876 180.121 525.918 182.08 525.918 184.496C525.918 186.912 527.876 188.871 530.293 188.871Z" fill="#F2F2F2"/>
<path d="M97.677 357.34C105.666 369.547 105.411 410.341 105.166 422.002C105.159 422.354 105.066 422.699 104.895 423.007C104.724 423.316 104.481 423.578 104.186 423.771C103.891 423.964 103.554 424.082 103.203 424.115C102.852 424.148 102.499 424.095 102.173 423.961C91.3881 419.519 53.9003 403.429 45.911 391.223C43.6832 387.824 42.1469 384.019 41.39 380.026C40.6331 376.033 40.6704 371.931 41.4998 367.952C42.3292 363.973 43.9344 360.197 46.2237 356.84C48.513 353.482 51.4415 350.608 54.8419 348.382C58.2423 346.156 62.0479 344.623 66.0413 343.868C70.0348 343.114 74.1377 343.154 78.1156 343.986C82.0936 344.818 85.8687 346.425 89.2251 348.717C92.5815 351.008 95.4535 353.939 97.677 357.34Z" fill="#F2F2F2"/>
<path d="M70.6051 388.204C79.2973 388.204 86.3437 381.157 86.3437 372.465C86.3437 363.773 79.2973 356.727 70.6051 356.727C61.913 356.727 54.8666 363.773 54.8666 372.465C54.8666 381.157 61.913 388.204 70.6051 388.204Z" fill="white"/>
<path d="M112.81 444.001C116.706 444.001 119.865 440.842 119.865 436.946C119.865 433.049 116.706 429.891 112.81 429.891C108.913 429.891 105.754 433.049 105.754 436.946C105.754 440.842 108.913 444.001 112.81 444.001Z" fill="#F2F2F2"/>
</svg>
