<svg width="494" height="419" viewBox="0 0 494 419" fill="none" xmlns="http://www.w3.org/2000/svg">
<path d="M484.635 207.749L493.274 155.694L385.407 132.85L389.835 0.0656845H337.046L332.988 121.75L187.782 90.9989L190.814 0.0656738H138.025L135.363 79.898L29.2697 57.4303L20.6302 109.486L133.579 133.405L130.137 236.609L8.63949 210.879L0 262.935L128.353 290.117L124.07 418.563H176.859L180.772 301.218L325.978 331.968L323.09 418.563H375.879L378.397 343.069L464.005 361.199L472.644 309.143L380.181 289.562L383.623 186.358L484.635 207.749ZM327.762 278.461L182.556 247.71L185.998 144.506L331.204 175.257L327.762 278.461Z" fill="#3A1E11"/>
<path opacity="0.2" d="M342.325 278.461L345.766 175.257L200.56 144.506L200.458 147.569L331.204 175.257L327.864 275.398L342.325 278.461Z" fill="black"/>
<path opacity="0.2" d="M347.551 121.75L351.608 0.0654297H337.046L333.09 118.687L347.551 121.75Z" fill="black"/>
<path opacity="0.2" d="M398.185 186.358L398.083 189.42L484.635 207.75L485.13 204.77L398.185 186.358Z" fill="black"/>
<path opacity="0.2" d="M149.926 79.8978L152.588 0.0654297H138.025L135.465 76.8357L149.926 79.8978Z" fill="black"/>
<path opacity="0.2" d="M392.959 343.069L392.857 346.131L464.004 361.199L464.499 358.219L392.959 343.069Z" fill="black"/>
<path opacity="0.2" d="M195.334 301.217L195.232 304.28L325.978 331.968L323.09 418.564H337.652L340.541 331.968L195.334 301.217Z" fill="black"/>
<path opacity="0.2" d="M130.239 233.547L144.7 236.609L148.141 133.406L35.1927 109.486L43.3374 60.4096L29.2699 57.4302L20.6299 109.486L133.579 133.406L130.239 233.547Z" fill="black"/>
<path opacity="0.2" d="M14.5628 262.935L22.7074 213.859L8.63931 210.879L0 262.935L128.353 290.117L124.07 418.564H138.632L142.916 290.117L14.5628 262.935Z" fill="black"/>
</svg>
