<svg width="163" height="496" viewBox="0 0 163 496" fill="none" xmlns="http://www.w3.org/2000/svg">
<path d="M126.614 235.479V260.254C126.614 260.254 132.578 300.169 132.578 335.037C132.578 369.906 122.943 451.112 122.943 451.112C122.943 451.112 103.674 457.994 102.297 447.442C100.921 436.89 97.2508 380.917 97.2508 372.658C97.2508 364.4 81.193 301.545 81.193 301.545L71.0995 371.282C71.0995 371.282 74.3111 453.865 71.0995 456.159C67.8879 458.453 52.2889 462.582 50.4538 458.453C48.6186 454.324 38.9839 365.777 38.9839 365.777C38.9839 365.777 31.1844 250.16 35.7724 243.279C40.3603 236.397 44.4895 230.891 44.4895 230.891C44.4895 230.891 110.097 214.833 126.614 235.479Z" fill="#2F2E41"/>
<path d="M120.649 448.359L121.8 455.838C122.185 458.389 122.436 460.959 122.552 463.537C122.731 467.294 123.356 473.082 125.497 474C128.709 475.376 149.553 492.956 134.872 493.873C120.19 494.791 112.846 496.376 108.497 493C103.356 489.008 109.179 490.816 106.885 490.816C104.591 490.816 101.839 490.816 100.921 487.145C100.003 483.475 102.297 477.052 102.297 477.052V448.359H120.649Z" fill="#2F2E41"/>
<path d="M52.1452 448L50.9946 455.479C50.6093 458.03 50.3583 460.6 50.2426 463.178C50.0637 466.935 49.4385 472.723 47.2974 473.641C44.0859 475.017 23.2411 492.597 37.9225 493.514C52.6039 494.432 59.9487 496.017 64.2974 492.641C69.4386 488.649 63.615 490.456 65.909 490.456C68.203 490.456 70.9557 490.456 71.8733 486.786C72.7909 483.116 70.4969 476.693 70.4969 476.693V448H52.1452Z" fill="#2F2E41"/>
<path d="M65.1352 36.3624C65.1352 36.3624 72.9346 55.6318 78.4401 58.8433C83.9456 62.0549 81.193 76.7363 81.193 76.7363L67.4291 96.0057H56.4181L43.1131 73.066C43.1131 73.066 42.1955 57.9258 39.4427 54.2554C36.6899 50.5851 65.1352 36.3624 65.1352 36.3624Z" fill="#FFB9B9"/>
<path opacity="0.1" d="M65.1352 36.3624C65.1352 36.3624 72.9346 55.6318 78.4401 58.8433C83.9456 62.0549 81.193 76.7363 81.193 76.7363L67.4291 96.0057H56.4181L43.1131 73.066C43.1131 73.066 42.1955 57.9258 39.4427 54.2554C36.6899 50.5851 65.1352 36.3624 65.1352 36.3624Z" fill="black"/>
<path d="M76.605 75.8187L97.2507 80.4067L112.391 232.726C112.391 232.726 104.133 234.103 95.8743 245.114C87.616 256.125 77.5226 254.29 72.4758 251.537C67.4291 248.784 47.2422 240.985 46.7834 237.773C46.3246 234.561 47.701 178.13 47.701 178.13L34.8547 90.0414L41.2778 80.4067H52.7477L61.9236 88.2062L76.605 75.8187Z" fill="#90796E"/>
<path d="M45.407 60.2197C58.5831 60.2197 69.2643 49.5384 69.2643 36.3624C69.2643 23.1864 58.5831 12.5051 45.407 12.5051C32.231 12.5051 21.5497 23.1864 21.5497 36.3624C21.5497 49.5384 32.231 60.2197 45.407 60.2197Z" fill="#FFB9B9"/>
<path d="M79.8165 68.0192C79.8165 68.0192 124.778 72.6071 128.908 82.2418C133.037 91.8764 126.155 134.544 126.155 134.544C126.155 134.544 142.671 171.707 142.213 180.424C141.754 189.141 157.812 248.784 140.377 241.902C122.943 235.02 128.449 217.127 119.732 229.973C111.015 242.82 107.344 240.984 107.344 240.984C107.344 240.984 98.6272 255.207 95.8744 253.831C93.1216 252.454 91.2865 241.902 97.2508 236.855C103.215 231.809 102.297 223.091 90.8276 206.575C79.3578 190.058 67.4291 103.346 74.311 90.0413C81.193 76.7362 79.8165 68.0192 79.8165 68.0192Z" fill="#6D473C"/>
<path d="M126.614 244.196L118.814 251.537L109.179 245.114L113.309 235.479L126.614 244.196Z" fill="#FFB9B9"/>
<path d="M46.7834 75.8187C46.7834 75.8187 11.915 88.665 11.915 102.429C11.915 116.193 33.0195 176.295 33.0195 176.295C33.0195 176.295 33.0196 191.894 32.102 195.564C31.1844 199.234 16.7491 231.247 29.3492 234.103C37.2142 235.885 43.6763 240.569 44.26 247.178C44.9532 255.027 38.9446 264.934 39.4427 266.677C40.3603 269.889 45.8658 274.477 45.407 272.183C44.9482 269.889 49.0774 236.855 55.5005 222.174C61.9236 207.493 52.7477 108.852 50.9125 96.0057C50.0269 89.1856 48.6468 82.4388 46.7834 75.8187Z" fill="#6D473C"/>
<path d="M28.432 243.278L36.69 263.007L42.884 250.39L35.772 234.561L28.432 243.278Z" fill="#FFB9B9"/>
<path d="M72.2842 51.1429C72.2842 51.1429 79.8165 54.2553 84.4045 54.2553C88.9924 54.2553 107.803 63.89 101.38 69.8543C94.9568 75.8187 85.3221 77.195 80.7341 85.9121C76.1462 94.6292 73.8522 96.0056 73.8522 96.0056L65.6841 85.0332C65.6841 85.0332 77.0638 72.1483 76.605 68.0192C76.1462 63.89 72.2842 51.1429 72.2842 51.1429Z" fill="#90796E"/>
<path d="M41.8739 62.1741C41.8739 62.1741 36.2311 64.3489 34.8547 68.0193C33.4783 71.6896 24.7613 78.5715 28.4316 80.4067C32.102 82.2418 48.1598 89.5825 51.3713 90.9589C54.5829 92.3353 60.568 87.054 60.568 87.054C60.568 87.054 52.5183 82.4713 52.5183 79.2597C52.5183 76.0481 41.8739 62.1741 41.8739 62.1741Z" fill="#90796E"/>
<path d="M22.9261 96.0056L11.9151 98.7584C11.9151 98.7584 -3.22507 166.66 1.36287 183.635C5.95081 200.611 27.5141 251.537 27.5141 251.537L41.2779 235.479C41.2779 235.479 35.2741 198.964 31.8529 196.576C28.4317 194.188 30.7257 189.141 30.7257 187.764C30.7257 186.388 32.1021 187.306 28.8905 184.094C25.679 180.882 40.8192 162.99 36.69 157.943C32.5609 152.896 22.9261 96.0056 22.9261 96.0056Z" fill="#6D473C"/>
<path opacity="0.1" d="M131.431 108.622L124.778 83.6182C124.778 83.6182 142.671 96.4644 146.342 115.275C150.012 134.085 164.235 171.707 155.059 188.223C145.883 204.74 129.825 252.454 124.32 251.537C118.814 250.619 105.509 239.149 105.05 237.314C104.591 235.479 128.907 193.27 125.237 190.058C121.567 186.847 122.484 178.589 125.237 176.753C127.99 174.918 131.201 166.201 128.907 166.66C126.614 167.119 119.732 162.531 121.108 157.484C122.484 152.437 114.226 118.487 114.226 118.487L131.431 108.622Z" fill="black"/>
<path d="M122.484 80.4066L128.907 82.2418C128.907 82.2418 146.801 95.088 150.471 113.899C154.141 132.709 168.364 170.33 159.188 186.847C150.012 203.363 133.954 251.078 128.449 250.16C122.943 249.243 109.638 237.773 109.179 235.938C108.721 234.103 133.037 191.894 129.366 188.682C125.696 185.47 126.614 177.212 129.366 175.377C132.119 173.542 135.331 164.825 133.037 165.284C130.743 165.742 123.861 161.154 125.237 156.108C126.614 151.061 118.355 117.11 118.355 117.11L122.484 80.4066Z" fill="#6D473C"/>
<path d="M63.9208 14.8274L68.3954 13.2003C68.3954 13.2003 59.0394 3.84426 46.0224 4.6579L49.6835 0.996832C49.6835 0.996832 40.7343 -2.25738 32.5987 6.28498C28.322 10.7755 23.3737 16.0539 20.289 22H15.497L17.497 26L10.497 30L17.6818 29.2815C17.0012 32.7348 17.2355 36.3062 18.3614 39.641L19.9885 44.1156C19.9885 44.1156 26.497 31.0986 26.497 29.4715V33.5393C26.497 33.5393 30.9716 29.8783 30.9716 27.4376L33.4123 30.2851L34.6326 25.8105L49.6835 30.2851L47.2429 26.6241L56.5988 27.8444L52.9377 23.3698C52.9377 23.3698 63.514 28.6579 63.9208 33.1325C64.3277 37.6072 69.6157 43.3021 69.6157 43.3021L72.0563 39.2343C72.0563 39.2343 75.7174 20.9291 63.9208 14.8274Z" fill="#2F2E41"/>
<path d="M62.997 39C64.93 39 66.497 36.5376 66.497 33.5C66.497 30.4624 64.93 28 62.997 28C61.064 28 59.497 30.4624 59.497 33.5C59.497 36.5376 61.064 39 62.997 39Z" fill="#FFB9B9"/>
</svg>
