<svg width="115" height="208" viewBox="0 0 115 208" fill="none" xmlns="http://www.w3.org/2000/svg">
<path d="M114.49 57C114.49 83.8804 72.9309 146.516 60.7856 164.247C60.4191 164.783 59.9275 165.221 59.3533 165.524C58.779 165.827 58.1395 165.986 57.4902 165.986C56.841 165.986 56.2014 165.827 55.6272 165.524C55.053 165.221 54.5613 164.783 54.1949 164.247C42.0496 146.516 0.490234 83.8804 0.490234 57C0.490235 41.8827 6.49555 27.3845 17.1851 16.6949C27.8747 6.00534 42.3729 0 57.4902 0C72.6076 0 87.1057 6.00534 97.7953 16.6949C108.485 27.3845 114.49 41.8827 114.49 57Z" fill="#90796E"/>
<path d="M57.4902 82C73.5065 82 86.4902 69.0163 86.4902 53C86.4902 36.9837 73.5065 24 57.4902 24C41.474 24 28.4902 36.9837 28.4902 53C28.4902 69.0163 41.474 82 57.4902 82Z" fill="white"/>
<path d="M57.4902 208C64.6699 208 70.4902 202.18 70.4902 195C70.4902 187.82 64.6699 182 57.4902 182C50.3105 182 44.4902 187.82 44.4902 195C44.4902 202.18 50.3105 208 57.4902 208Z" fill="#90796E"/>
</svg>
